<svg width="512.005" height="512.005" xmlns="http://www.w3.org/2000/svg">

 <g>
  <title>background</title>
  <rect fill="none" id="canvas_background" height="402" width="582" y="-1" x="-1"/>
 </g>
 <g>
  <title>Layer 1</title>
  <path fill="#d1d1d1" id="svg_5" d="m511.748,501.39l-8.721,-34.756c-4.378,-13.158 -30.285,-55.484 -178.756,-56.636l0,-8.934c0,-4.71 -3.814,-8.533 -8.533,-8.533s-8.533,3.823 -8.533,8.533l0,17.067c0,0.06 0.034,0.111 0.034,0.171c0,0.051 -0.034,0.094 -0.034,0.154c-0.034,5.205 -1.749,50.876 -51.2,50.876c-49.451,0 -51.166,-45.986 -51.2,-51.2l0,-17.067c0,-4.71 -3.814,-8.533 -8.533,-8.533s-8.533,3.823 -8.533,8.533l0,8.619c-110.577,0.869 -165.95,18.516 -178.946,57.573l-8.533,34.133c-1.152,4.574 1.638,9.207 6.212,10.351c4.557,1.161 9.199,-1.638 10.342,-6.204l8.346,-33.51c9.916,-29.739 63.317,-44.595 163.14,-45.338c3.098,24.431 19.703,59.708 67.703,59.708c47.974,0 64.589,-35.063 67.703,-59.366c116.958,0.862 157.619,28.467 162.953,44.373l8.533,34.133c0.973,3.874 4.446,6.46 8.269,6.46c0.683,0 1.382,-0.077 2.074,-0.256c4.574,-1.144 7.356,-5.777 6.213,-10.351z"/>
  <path fill="#d1d1d1" id="svg_6" d="m57.950776,58.355163l196.267,25.6c0.367,0.043 0.734,0.068 1.101,0.068s0.734,-0.026 1.101,-0.068l186.632,-24.345l0,29.628c-5.35,6.016 -17.067,21.026 -17.067,37.453c0,18.782 15.309,25.6 25.6,25.6s25.6,-6.818 25.6,-25.6c0,-16.427 -11.716,-31.437 -17.067,-37.453l0,-39.348c0,-1.126 -0.239,-2.193 -0.64,-3.183c-0.145,-0.35 -0.393,-0.623 -0.58,-0.947c-0.333,-0.597 -0.666,-1.186 -1.126,-1.681c-0.299,-0.316 -0.657,-0.529 -0.998,-0.785c-0.486,-0.393 -0.964,-0.768 -1.527,-1.041c-0.418,-0.205 -0.862,-0.29 -1.314,-0.418c-0.418,-0.128 -0.794,-0.35 -1.246,-0.41l-196.267,-25.6c-0.734,-0.085 -1.468,-0.085 -2.202,0l-196.267,25.6c-4.25,0.555 -7.432,4.181 -7.432,8.465c0,4.284 3.183,7.911 7.432,8.465zm402.168,68.335c0,6.81 -4.617,8.405 -8.533,8.533c-3.917,-0.128 -8.533,-1.724 -8.533,-8.533c0,-7.083 4.352,-14.985 8.533,-20.813c4.181,5.829 8.533,13.731 8.533,20.813zm-204.8,-93.798l130.295,16.998l-130.295,16.999l-130.296,-16.999l130.296,-16.998z"/>
  <path fill="#d1d1d1" id="svg_7" d="m275.673,309.603c-0.273,0.247 -6.707,6.127 -19.669,6.127c-12.774,0 -19.209,-5.709 -19.652,-6.118c-3.319,-3.251 -8.67,-3.226 -11.981,0.085c-3.337,3.337 -3.337,8.73 0,12.066c1.126,1.126 11.605,11.034 31.633,11.034s30.507,-9.907 31.633,-11.034c3.294,-3.294 3.285,-8.567 0.051,-11.913c-3.251,-3.344 -8.61,-3.438 -12.015,-0.247z"/>
  <path fill="#d1d1d1" id="svg_8" d="m119.47,172.123c-9.933,3.524 -17.067,13.013 -17.067,24.141l0,34.133c0,11.904 8.166,21.939 19.2,24.789c4.565,13.466 17.178,49.98 24.371,64.358c13.551,27.11 51.977,72.986 110.029,72.986c58.052,0 96.478,-45.875 110.029,-72.986c7.194,-14.379 19.806,-50.893 24.371,-64.358c11.034,-2.85 19.2,-12.885 19.2,-24.789l0,-34.133c0,-11.127 -7.134,-20.617 -17.067,-24.141l0,-9.992c0,-4.71 -3.814,-8.533 -8.533,-8.533s-8.533,3.823 -8.533,8.533l0,17.067c0,4.71 3.814,8.533 8.533,8.533c4.71,0 8.533,3.831 8.533,8.533l0,34.133c0,4.702 -3.823,8.533 -8.533,8.533c-3.678,0 -6.938,2.347 -8.09,5.837c-0.179,0.503 -16.981,50.816 -25.139,67.149c-1.306,2.594 -32.495,63.548 -94.771,63.548s-93.466,-60.954 -94.771,-63.548c-8.166,-16.333 -24.96,-66.645 -25.139,-67.149c-1.161,-3.49 -4.412,-5.837 -8.09,-5.837c-4.71,0 -8.533,-3.831 -8.533,-8.533l0,-34.133c0,-4.702 3.823,-8.533 8.533,-8.533c4.719,0 8.533,-3.823 8.533,-8.533l0,-17.068c0,-4.71 -3.814,-8.533 -8.533,-8.533s-8.533,3.823 -8.533,8.533l0,9.993z"/>
  <path fill="#d1d1d1" id="svg_9" d="m128.004,59.73c-4.719,0 -8.533,3.823 -8.533,8.533l0,59.733c0,3.234 1.826,6.187 4.719,7.637c2.167,1.075 53.896,26.496 131.814,26.496s129.647,-25.421 131.814,-26.496c2.893,-1.451 4.719,-4.403 4.719,-7.637l0,-59.732c0,-4.71 -3.814,-8.533 -8.533,-8.533s-8.533,3.823 -8.533,8.533l0,54.212c-14.114,5.982 -58.778,22.588 -119.467,22.588s-105.353,-16.606 -119.467,-22.588l0,-54.212c0,-4.711 -3.814,-8.534 -8.533,-8.534z"/>
 </g>
</svg>