<svg width="64" height="64" xmlns="http://www.w3.org/2000/svg">

 <g>
  <title>background</title>
  <rect fill="none" id="canvas_background" height="402" width="582" y="-1" x="-1"/>
 </g>
 <g>
  <title>Layer 1</title>
  <path stroke="null" fill="#d1d1d1" id="svg_2" d="m42.079088,1.271185l-38,0c-0.552,0 -1,0.448 -1,1l0,60c0,0.552 0.448,1 1,1l38,0c0.552,0 1,-0.448 1,-1l0,-60c0,-0.552 -0.448,-1 -1,-1zm-1,60l-36,0l0,-58l36,0l0,58z"/>
  <path fill="#d1d1d1" id="svg_4" d="m10.079088,27.271185l4,0c0.552,0 1,-0.448 1,-1l0,-4c0,-0.552 -0.448,-1 -1,-1l-4,0c-0.552,0 -1,0.448 -1,1l0,4c0,0.552 0.448,1 1,1zm1,-4l2,0l0,2l-2,0l0,-2z"/>
  <path fill="#d1d1d1" id="svg_5" d="m10.079088,35.271185l4,0c0.552,0 1,-0.448 1,-1l0,-4c0,-0.552 -0.448,-1 -1,-1l-4,0c-0.552,0 -1,0.448 -1,1l0,4c0,0.552 0.448,1 1,1zm1,-4l2,0l0,2l-2,0l0,-2z"/>
  <path fill="#d1d1d1" id="svg_6" d="m10.079088,43.271185l4,0c0.552,0 1,-0.448 1,-1l0,-4c0,-0.552 -0.448,-1 -1,-1l-4,0c-0.552,0 -1,0.448 -1,1l0,4c0,0.552 0.448,1 1,1zm1,-4l2,0l0,2l-2,0l0,-2z"/>
  <path fill="#d1d1d1" id="svg_7" d="m10.079088,51.271185l4,0c0.552,0 1,-0.448 1,-1l0,-4c0,-0.552 -0.448,-1 -1,-1l-4,0c-0.552,0 -1,0.448 -1,1l0,4c0,0.552 0.448,1 1,1zm1,-4l2,0l0,2l-2,0l0,-2z"/>
  <rect fill="#d1d1d1" id="svg_8" y="5.271185" x="13.079088" width="20" height="2"/>
  <rect fill="#d1d1d1" id="svg_9" y="9.271185" x="17.079088" width="11" height="2"/>
  <rect fill="#d1d1d1" id="svg_10" y="15.18079" x="13.293799" width="18" height="2"/>
  <rect fill="#d1d1d1" id="svg_11" y="23.271185" x="19.079088" width="18" height="2"/>
  <rect fill="#d1d1d1" id="svg_12" y="31.271185" x="19.079088" width="18" height="2"/>
  <rect fill="#d1d1d1" id="svg_13" y="39.271185" x="19.079088" width="18" height="2"/>
  <rect fill="#d1d1d1" id="svg_14" y="47.271185" x="19.079088" width="18" height="2"/>
  <path fill="#d1d1d1" id="svg_16" d="m58.83617,41.282492l0,-32c0,-0.127 -0.024,-0.253 -0.071,-0.372l-2,-5c-0.153,-0.379 -0.52,-0.628 -0.929,-0.628s-0.776,0.249 -0.929,0.628l-2,5c-0.047,0.119 -0.071,0.245 -0.071,0.372l0,32c-0.552,0 -1,0.448 -1,1l0,12c0,0.552 0.448,1 1,1l0,5c0,0.552 0.448,1 1,1l4,0c0.552,0 1,-0.448 1,-1l0,-5c0.552,0 1,-0.448 1,-1l0,-12c0,-0.552 -0.448,-1 -1,-1zm-3,-34.308l0.923,2.308l-1.846,0l0.923,-2.308zm-1,4.308l2,0l0,30l-2,0l0,-30zm3,42l-4,0l0,-10l4,0l0,10zm-1,6l-2,0l0,-4l2,0l0,4z"/>
 </g>
</svg>